# AST/ASF file generated using VICON BodyLanguage
# -----------------------------------------------
:version 1.10
:name VICON
:units
  mass 1.0
  length 0.45
  angle deg
:documentation
   .ast/.asf automatically generated from VICON data using
   VICON BodyBuilder and BodyLanguage model FoxedUp or BRILLIANT.MOD
:root
   order TX TY TZ RX RY RZ
   axis XYZ
   position 0 0 0  
   orientation 0 0 0 
:bonedata
  begin
     id 1 
     name lhipjoint
     direction 0.671379 -0.66392 0.329334 
     length 2.38647 
     axis 0 0 0  XYZ
  end
  begin
     id 2 
     name lfemur
     direction 0.34202 -0.939693 0  
     length 6.48179  
     axis 0 0 20  XYZ
    dof rx ry rz
    limits (-160.0 20.0)
           (-70.0 70.0)
           (-60.0 70.0)
  end
  begin
     id 3 
     name ltibia
     direction 0.34202 -0.939693 0   
     length 6.86524   
     axis 0 0 20   XYZ
    dof rx
    limits (-10.0 170.0)
  end
  begin
     id 4 
     name lfoot
     direction 0.204886 -0.562919 0.800715   
     length 1.73031   
     axis -90 7.62852e-016 20   XYZ
    dof rx rz
    limits (-45.0 90.0)
           (-70.0 20.0)
  end
  begin
     id 5 
     name ltoes
     direction 1.53548e-011 -4.21841e-011 1   
     length 0.828161   
     axis -90 7.62852e-016 20   XYZ
    dof rx
    limits (-90.0 20.0)
  end
  begin
     id 6 
     name rhipjoint
     direction -0.662732 -0.670855 0.332775   
     length 2.3618  
     axis 0 0 0  XYZ 
  end
  begin
     id 7 
     name rfemur
     direction -0.34202 -0.939693 0   
     length 6.3025   
     axis 0 0 -20   XYZ
    dof rx ry rz
    limits (-160.0 20.0)
           (-70.0 70.0)
           (-70.0 60.0)
  end
  begin
     id 8 
     name rtibia
     direction -0.34202 -0.939693 0   
     length 6.8732   
     axis 0 0 -20   XYZ
    dof rx
    limits (-10.0 170.0)
 end
 begin
     id 9 
     name rfoot
     direction -0.173856 -0.477665 0.861168   
     length 1.54784  
     axis -90 -7.62852e-016 -20   XYZ
    dof rx rz
    limits (-45.0 90.0)
           (-20.0 70.0)
  end
  begin
     id 10 
     name rtoes
     direction -1.53562e-011 -4.21802e-011 1   
     length 0.759618   
     axis -90 -7.62852e-016 -20   XYZ
    dof rx
    limits (-90.0 20.0)
  end
  begin
     id 11 
     name lowerback
     direction -0.0278357 0.999497 -0.0151789   
     length 1.97203   
     axis 0 0 0   XYZ
    dof rx ry rz
    limits (-20.0 45.0)
           (-30.0 30.0)
           (-30.0 30.0)
  end
  begin
     id 12 
     name upperback
     direction -0.00360622 0.997542 0.0699804   
     length 1.94709   
     axis 0 0 0   XYZ
    dof rx ry rz
    limits (-20.0 45.0)
           (-30.0 30.0)
           (-30.0 30.0)
  end
  begin
     id 13 
     name thorax
     direction 0.00907706 0.997048 0.0762461   
     length 1.95722   
     axis 0 0 0   XYZ
    dof rx ry rz
    limits (-20.0 45.0)
           (-30.0 30.0)
           (-30.0 30.0)
  end
  begin
     id 14 
     name lowerneck
     direction -0.0481835 0.99872 -0.0153927   
     length 1.63078   
     axis 0 0 0   XYZ
    dof rx ry rz
    limits (-20.0 45.0)
           (-30.0 30.0)
           (-30.0 30.0)
  end
  begin
     id 15 
     name upperneck
     direction 0.0859716 0.979226 -0.183644   
     length 1.62591   
     axis 0 0 0   XYZ
    dof rx ry rz
    limits (-20.0 45.0)
           (-30.0 30.0)
           (-30.0 30.0)
  end
  begin
     id 16
     name head
     direction 0.0324821 0.997629 -0.0606773  
     length 1.64811  
     axis 0 0 0   XYZ
    dof rx ry rz
    limits (-20.0 45.0)
           (-30.0 30.0)
           (-30.0 30.0)
  end
  begin
     id 17 
     name lclavicle
     direction 0.939609 0.311019 0.142835  
     length 3.70647  
     axis 0 0 0   XYZ
    dof ry rz
    limits (-20.0 10.0)
           (0.0 20.0)
  end
  begin
     id 18 
     name lhumerus
     direction 1 -4.48963e-011 -1.59838e-027   
     length 4.59207   
     axis 180 -30 -90   XYZ
    dof rx ry rz
    limits (-60.0 90.0)
           (-90.0 90.0)
           (-90.0 90.0)
  end
  begin
     id 19
     name lradius
     direction 1 -4.48957e-011 -1.3483e-026   
     length 2.98109   
     axis 180 -30 -90   XYZ
    dof rx
    limits (-10.0 170.0)
  end
  begin
     id 20
     name lwrist
     direction 1 -4.48954e-011 -3.11579e-026   
     length 1.49055   
     axis 2.00652e-014 90 90   XYZ
    dof ry
    limits (-180.0 0.0)
 end
  begin
     id 21 
     name lhand
     direction 1 -4.4911e-011 -6.23158e-026   
     length 0.480203   
     axis 3.97628e-014 90 90   XYZ
    dof rx rz
    limits (-90.0 90.0)
           (-45.0 45.0)
  end
  begin
     id 22 
     name lfingers
     direction 1 -4.48893e-011 -1.24632e-025   
     length 0.387152   
     axis 7.95256e-014 90 90   XYZ
    dof rx
    limits (0.0 90.0)
  end
  begin
     id 23
     name lthumb
     direction 0.707107 -6.35013e-011 0.707107   
     length 0.555875   
     axis -90 45 2.85299e-015   XYZ
    dof rx rz
    limits (-45.0 45.0)
           (-45.0 45.0)
  end
  begin
     id 24 
     name rclavicle
     direction -0.950396 0.30392 0.0661859   
     length 3.70894  
     axis 0 0 0   XYZ 
    dof ry rz
    limits (-10.0 20.0)
           (-20.0 0.0)
  end
  begin
     id 25 
     name rhumerus
     direction -1 -4.48957e-011 -2.96677e-027  
     length 4.76508   
     axis 180 30 90   XYZ
    dof rx ry rz
    limits (-90.0 60.0)
           (-90.0 90.0)
           (-90.0 90.0)
  end
  begin
     id 26 
     name rradius
     direction -1 -4.48974e-011 -1.44501e-026   
     length 2.78902   
     axis 180 30 90   XYZ
    dof rx
    limits (-10.0 170.0)
  end
  begin
     id 27 
     name rwrist
     direction -1 -4.48978e-011 -3.11579e-026   
     length 1.39451   
     axis 2.00652e-014 -90 -90   XYZ
    dof ry
    limits (-180.0 0.0)
  end
  begin
     id 28
     name rhand
     direction -1 -4.48956e-011 -6.23158e-026   
     length 0.721303   
     axis 3.97628e-014 -90 -90   XYZ
    dof rx rz
    limits (-90.0 90.0)
           (-45.0 45.0)
  end
  begin
     id 29
     name rfingers
     direction -1 -4.4899e-011 -1.24632e-025   
     length 0.581533   
     axis 7.95256e-014 -90 -90   XYZ
    dof rx
    limits (0.0 90.0)
  end
  begin
     id 30
     name rthumb
     direction -0.707107 -6.34911e-011 0.707107   
     length 0.834968   
     axis -90 -45 -2.85299e-015   XYZ
    dof rx rz
    limits (-45.0 45.0)
           (-45.0 45.0)
  end
:hierarchy
  begin
    root lhipjoint rhipjoint lowerback
    lhipjoint lfemur
    lfemur ltibia
    ltibia lfoot
    lfoot ltoes
    rhipjoint rfemur
    rfemur rtibia
    rtibia rfoot
    rfoot rtoes
    lowerback upperback
    upperback thorax
    thorax lowerneck lclavicle rclavicle
    lowerneck upperneck
    upperneck head
    lclavicle lhumerus
    lhumerus lradius
    lradius lwrist
    lwrist lhand lthumb
    lhand lfingers
    rclavicle rhumerus
    rhumerus rradius
    rradius rwrist
    rwrist rhand rthumb
    rhand rfingers
  end

#!OML:ASF I:\salsa\salsa 7_09\Patient 1\Session 1\dancerfemale.ASF
:FULLY-SPECIFIED
:DEGREES
791
root 13.2034 16.3625 3.89442 353.848 -472.723 -701.077
lowerback 5.88092 -1.6203 0.528565
upperback -7.34299 -2.55881 -2.03815
thorax -11.3043 -1.47585 -2.07585
lowerneck 5.03045 -1.57428 -3.27212
upperneck 0.363387 -2.42225 12.2885
head -0.578061 -1.46547 4.71676
rclavicle 3.90115e-014 1.90833e-014
rhumerus -28.3982 10.7479 -102.238
rradius 82.4461
rwrist 13.9874
rhand -46.5254 26.7435
rfingers 7.12502
rthumb -19.251 -722.324
lclavicle 3.90115e-014 1.90833e-014
lhumerus -38.5477 -15.7683 87.2002
lradius 93.7604
lwrist -27.387
lhand -28.5296 61.7481
lfingers 7.12502
lthumb -1.89743 268.281
rfemur -8.42511 -6.45111 26.239
rtibia 34.763
rfoot 8.95804 -28.2997
rtoes -5.17535
lfemur -32.8955 18.1086 -25.7386
ltibia 41.7519
lfoot -27.8886 33.2684
ltoes -10.6214
792
root 13.3565 16.3748 3.87482 351.498 -474.703 -698.337
lowerback 6.06482 -1.75388 2.13054
upperback -7.41333 -2.51535 -1.65121
thorax -11.5546 -1.56942 -2.5581
lowerneck 4.63141 -1.00288 -2.4818
upperneck 0.845924 -1.65262 11.5676
head -0.426279 -1.04518 4.27096
rclavicle -5.1684e-015 -1.74931e-014
rhumerus -27.5648 11.6867 -102.214
rradius 81.4741
rwrist 13.5394
rhand -45.5956 25.711
rfingers 7.12502
rthumb -18.3567 -723.443
lclavicle -5.1684e-015 -1.74931e-014
lhumerus -39.4037 -14.0101 86.0353
lradius 92.7441
lwrist -28.3225
lhand -28.9614 62.1788
lfingers 7.12502
lthumb -2.3144 267.854
rfemur -5.24072 -5.52857 28.3918
rtibia 29.1549
rfoot 10.9799 -30.1821
rtoes -13.5416
lfemur -33.7156 17.7387 -23.59
ltibia 42.4464
lfoot -29.1679 34.4937
ltoes -6.80294
793
root 13.5166 16.3704 3.85457 351.337 -476.307 -698.064
lowerback 6.37877 -1.89203 2.70089
upperback -7.42142 -2.61683 -1.52514
thorax -11.7885 -1.66166 -2.7156
lowerneck 4.22497 -0.450802 -1.54249
upperneck 1.23663 -0.893455 10.6664
head -0.291342 -0.628925 3.7453
rclavicle 5.397e-014 -1.59028e-014
rhumerus -26.6865 12.8726 -102.044
rradius 80.6298
rwrist 13.7992
rhand -44.9556 24.1786
rfingers 7.12502
rthumb -17.741 -725.032
lclavicle 5.397e-014 -1.59028e-014
lhumerus -40.0053 -12.369 84.6818
lradius 91.6753
lwrist -29.6577
lhand -29.0854 62.6464
lfingers 7.12502
lthumb -2.43422 267.388
rfemur -1.79644 -5.25218 29.2653
rtibia 22.8606
rfoot 12.8037 -31.7801
rtoes -13.6562
lfemur -34.4215 17.4931 -22.5711
ltibia 42.9694
lfoot -29.9462 35.7815
ltoes -4.03646
794
root 13.6881 16.3585 3.83338 352.291 -477.617 -698.902
lowerback 6.62006 -2.00422 2.69224
upperback -7.36525 -2.7668 -1.55949
thorax -11.8857 -1.73392 -2.71579
lowerneck 3.63827 0.154357 -0.828234
upperneck 1.47555 -0.07173 10.0747
head -0.164814 -0.186085 3.38451
rclavicle 8.89561e-014 1.59028e-014
rhumerus -25.694 14.2457 -101.719
rradius 79.8429
rwrist 14.4057
rhand -44.6302 22.9561
rfingers 7.12502
rthumb -17.4278 -726.283
lclavicle 8.89561e-014 1.59028e-014
lhumerus -40.4062 -10.7899 83.0851
lradius 90.767
lwrist -30.8483
lhand -29.204 62.8541
lfingers 7.12502
lthumb -2.54869 267.181
rfemur 1.58831 -5.5201 29.5034
rtibia 16.0782
rfoot 14.3283 -32.063
rtoes -6.46588
lfemur -35.2676 17.23 -22.1769
ltibia 43.2741
lfoot -30.2483 37.0122
ltoes -1.26277
795
root 13.8714 16.3371 3.81324 354.41 -478.634 -700.775
lowerback 6.62883 -2.07121 2.10317
upperback -7.32229 -2.952 -1.73265
thorax -11.8308 -1.78258 -2.54112
lowerneck 2.93395 0.775032 -0.160077
upperneck 1.63482 0.766588 9.52823
head -0.0346356 0.265028 3.059
rclavicle -1.57437e-013 -3.33958e-014
rhumerus -24.8109 15.8084 -101.337
rradius 79.2764
rwrist 14.4785
rhand -44.5312 22.2138
rfingers 7.12502
rthumb -17.3325 -727.033
lclavicle -1.57437e-013 -3.33958e-014
lhumerus -40.8031 -9.25026 81.3828
lradius 90.1157
lwrist -31.9188
lhand -29.3426 62.8023
lfingers 7.12502
lthumb -2.68255 267.235
rfemur 5.00127 -4.40016 29.3342
rtibia 8.35829
rfoot 15.5968 -32.9601
rtoes -1.47271
lfemur -36.4972 17.0837 -22.5354
ltibia 43.5399
lfoot -30.2449 37.8291
ltoes 1.66734
796
root 14.0609 16.3287 3.79767 356.432 -479.519 -702.262
lowerback 6.39561 -2.12936 1.62558
upperback -7.2634 -3.10216 -1.80665
thorax -11.6058 -1.81831 -2.33632
lowerneck 2.14021 1.40167 0.0863844
upperneck 1.56493 1.61662 9.15878
head 0.0414374 0.715922 2.88192
rclavicle 2.21645e-014 3.33958e-014
rhumerus -23.7997 17.5278 -100.819
rradius 78.6892
rwrist 14.0113
rhand -44.5951 22.1787
rfingers 7.12502
rthumb -17.394 -727.063
lclavicle 2.21645e-014 3.33958e-014
lhumerus -41.4961 -7.42026 79.593
lradius 90.0149
lwrist -32.3177
lhand -30.0837 62.6662
lfingers 7.12502
lthumb -3.39824 267.381
rfemur 8.36511 -3.4577 29.4488
rtibia 1.27222e-014
rfoot 17.8352 -33.5397
rtoes 5.51365
lfemur -38.1972 17.3161 -22.9672
ltibia 43.9293
lfoot -29.7887 38.1366
ltoes 3.98299
797
root 14.25 16.3242 3.79109 357.168 -480.477 -702.414
lowerback 6.71957 -2.24033 1.73647
upperback -7.41302 -3.21978 -1.5656
thorax -11.9733 -1.87622 -2.10184
lowerneck 1.76246 2.13816 -0.287831
upperneck 1.24493 2.62844 9.21843
head -0.051439 1.22394 2.96356
rclavicle 3.8266e-014 4.77083e-014
rhumerus -23.1676 19.3046 -100.278
rradius 78.0367
rwrist 13.9715
rhand -44.4853 22.6015
rfingers 7.12502
rthumb -17.2883 -726.649
lclavicle 3.8266e-014 4.77083e-014
lhumerus -43.2182 -5.10159 77.7313
lradius 90.5742
lwrist -32.0881
lhand -31.3719 62.4638
lfingers 7.12502
lthumb -4.64225 267.607
rfemur 7.45193 -2.46843 30.0647
rtibia 3.81667e-014
rfoot 15.8809 -33.9441
rtoes 9.58765
lfemur -39.9102 17.8346 -22.7229
ltibia 44.5665
lfoot -29.3274 37.9758
ltoes 6.51071
798
root 14.4153 16.2996 3.79158 357.311 -481.66 -702.348
lowerback 7.06906 -2.23737 2.22994
upperback -7.23603 -3.11108 -1.39452
thorax -11.9981 -1.84673 -2.20303
lowerneck 1.63412 2.77085 -0.437861
upperneck 0.148267 3.57662 9.06707
head -0.424604 1.67438 2.92416
rclavicle 6.81086e-014 5.08889e-014
rhumerus -22.0432 20.7869 -99.5567
rradius 77.1521
rwrist 14.388
rhand -44.6555 23.4935
rfingers 7.12502
rthumb -17.4521 -725.743
lclavicle 6.81086e-014 5.08889e-014
lhumerus -44.6628 -3.16896 75.6939
lradius 91.2966
lwrist -31.3336
lhand -32.3839 60.7101
lfingers 7.12502
lthumb -5.61938 269.384
rfemur 7.07604 -1.31681 30.6205
rtibia -6.36111e-015
rfoot 13.9215 -34.0706
rtoes 11.1527
lfemur -41.1751 18.857 -22.3232
ltibia 45.5244
lfoot -29.0205 37.3537
ltoes 9.0911
799
root 14.553 16.2666 3.79094 357.544 -483.139 -702.833
lowerback 7.42249 -2.15377 2.46547
upperback -6.78573 -2.91225 -1.29476
thorax -11.6942 -1.74235 -2.26064
lowerneck 1.44569 3.44014 -0.599617
upperneck -1.34833 4.5918 8.95939
head -0.920633 2.14523 2.89751
rclavicle -3.53509e-014 7.4743e-014
rhumerus -20.52 22.2833 -98.6892
rradius 76.2416
rwrist 14.7775
rhand -44.9296 24.3982
rfingers 7.12502
rthumb -17.7159 -724.815
lclavicle -3.53509e-014 7.4743e-014
lhumerus -45.9284 -1.28668 73.4754
lradius 92.0876
lwrist -30.1269
lhand -33.1627 57.2955
lfingers 7.12502
lthumb -6.37125 447.18
rfemur 7.20074 0.0804316 30.718
rtibia 2.54444e-014
rfoot 12.3235 -34.0281
rtoes 13.0599
lfemur -41.9441 20.1081 -22.0465
ltibia 46.7597
lfoot -28.6486 36.8434
ltoes 10.2064
800
root 14.6892 16.2303 3.78943 357.628 -484.594 -703.249
lowerback 7.89754 -2.00924 2.62271
upperback -6.33281 -2.6396 -1.19714
thorax -11.4531 -1.59591 -2.28701
lowerneck 1.50019 4.05056 -0.973562
upperneck -3.13496 5.53941 9.19129
head -1.57642 2.55714 3.01997
rclavicle 3.26007e-014 -1.27222e-014
rhumerus -18.8924 23.5865 -97.7749
rradius 75.2914
rwrist 14.8323
rhand -45.639 25.1246
rfingers 7.12502
rthumb -18.3984 -724.025
lclavicle 3.26007e-014 -1.27222e-014
lhumerus -47.3338 0.599528 71.2423
lradius 92.8447
lwrist -29.0965
lhand -34.4254 56.711
lfingers 7.12502
lthumb -7.59019 446.555
rfemur 7.36648 1.43551 30.8453
rtibia -4.13472e-014
rfoot 11.1966 -33.9565
rtoes 15.059
lfemur -42.6721 21.2095 -21.551
ltibia 48.2731
lfoot -27.4195 36.3245
ltoes 9.54749
801
root 14.8271 16.1994 3.78947 357.58 -485.847 -703.462
lowerback 8.49358 -1.95503 2.72082
upperback -6.02834 -2.48911 -0.960414
thorax -11.4521 -1.50401 -2.10193
lowerneck 1.8182 4.66519 -1.72095
upperneck -4.82383 6.48702 9.7157
head -2.29985 2.95985 3.30707
rclavicle 5.71506e-015 -4.6118e-014
rhumerus -17.3753 25.0827 -96.926
rradius 74.3613
rwrist 14.3918
rhand -46.1305 25.1984
rfingers 7.12502
rthumb -18.8713 -723.906
lclavicle 5.71506e-015 -4.6118e-014
lhumerus -49.1717 2.71074 69.0423
lradius 93.5581
lwrist -28.1043
lhand -35.5687 54.5349
lfingers 7.12502
lthumb -8.69359 444.336
rfemur 7.39448 2.59576 31.0903
rtibia -9.54166e-015
rfoot 10.5926 -33.8641
rtoes 16.3021
lfemur -43.4249 21.7834 -20.7373
ltibia 49.9249
lfoot -25.4448 35.7598
ltoes 7.61721
802
root 14.9631 16.1582 3.78743 356.799 -487.017 -702.551
lowerback 8.96422 -1.98739 3.33537
upperback -5.85472 -2.36245 -0.411534
thorax -11.5369 -1.45578 -1.86577
lowerneck 1.96812 5.28626 -2.57211
upperneck -5.98939 7.40109 10.1705
head -2.84843 3.3726 3.59271
rclavicle 1.06896e-013 4.77083e-015
rhumerus -15.9168 26.671 -96.1312
rradius 73.4058
rwrist 13.6667
rhand -46.4158 24.6607
rfingers 7.12502
rthumb -19.1456 -724.417
lclavicle 1.06896e-013 4.77083e-015
lhumerus -50.9223 4.67895 66.854
lradius 93.7876
lwrist -27.2424
lhand -36.3674 51.8423
lfingers 7.12502
lthumb -9.46432 441.61
rfemur 7.20127 3.66444 32.1296
rtibia -6.36111e-015
rfoot 10.1216 -34.0704
rtoes 16.5684
lfemur -44.3164 22.1969 -19.0901
ltibia 51.702
lfoot -24.3531 34.5908
ltoes 7.17242
803
root 15.0818 16.1136 3.77817 355.695 -488.146 -701.313
lowerback 9.40244 -1.92093 4.13456
upperback -5.64062 -2.07433 0.147352
thorax -11.5551 -1.34491 -1.75584
lowerneck 1.59832 5.72505 -2.91664
upperneck -6.54673 8.01732 10.2475
head -3.03954 3.67223 3.66926
rclavicle -5.87409e-014 -6.52014e-014
rhumerus -14.456 27.8207 -95.3513
rradius 72.4248
rwrist 13.044
rhand -46.6068 25.1025
rfingers 7.12502
rthumb -19.3292 -723.957
lclavicle -5.87409e-014 -6.52014e-014
lhumerus -52.1798 5.98142 64.7867
lradius 93.4167
lwrist -26.7729
lhand -36.9905 48.8184
lfingers 7.12502
lthumb -10.0655 438.558
rfemur 7.12829 4.64366 33.4525
rtibia 3.18055e-015
rfoot 9.69889 -34.5006
rtoes 16.334
lfemur -44.8494 22.5567 -17.0028
ltibia 53.5568
lfoot -23.763 32.721
ltoes 6.59888
804
root 15.1791 16.0784 3.76438 354.571 -488.957 -700.274
lowerback 9.91326 -1.92295 4.84312
upperback -5.48523 -1.90151 0.559554
thorax -11.6935 -1.29442 -1.72828
lowerneck 1.31204 6.10612 -2.61715
upperneck -6.72975 8.53263 10.0664
head -3.06013 3.92229 3.53377
rclavicle -3.96078e-014 -3.81667e-014
rhumerus -13.39 28.5511 -95.0844
rradius 71.4708
rwrist 12.8293
rhand -46.6849 26.2069
rfingers 7.12502
rthumb -19.4043 -722.845
lclavicle -3.96078e-014 -3.81667e-014
lhumerus -53.6131 6.88848 62.6674
lradius 92.7073
lwrist -26.906
lhand -37.7812 45.5346
lfingers 7.12502
lthumb -10.8283 435.235
rfemur 7.26109 5.25561 34.6342
rtibia 3.49861e-014
rfoot 9.47045 -35.2055
rtoes 16.4906
lfemur -45.0341 22.7726 -14.9381
ltibia 55.2611
lfoot -22.7219 30.0832
ltoes 5.6226
